<svg xmlns="http://www.w3.org/2000/svg" width="1600" height="900" viewBox="0 0 1600 900">
<rect width="1600" height="900" fill="#ffffff"/>
<text x="58" y="34" font-family="Arial" font-size="11" font-weight="700" letter-spacing="1.5" fill="#7b6a4b">AI FUEL EFFICIENCY PROGRAM | STEERING COMMITTEE</text>
<text x="58" y="68" font-family="Arial" font-size="24" font-weight="700" fill="#1d252b">SteerCo focused on what had been established, what implementation had to make real, and which decisions required escalation</text>
<line x1="58" y1="91" x2="1542" y2="91" stroke="#b2915f" stroke-width="2"/>

<g font-family="Arial">
<text x="58" y="132" font-size="14" font-weight="700" fill="#4e555b">PROGRAM VIEW</text>

<rect x="58" y="158" width="465" height="210" fill="#faf9f7" stroke="#cfd3d6"/>
<text x="82" y="191" font-size="12" font-weight="700" letter-spacing="1.1" fill="#7c6848">WORK PRODUCTS ESTABLISHED</text>
<text x="82" y="228" font-size="15" fill="#37434b">✓ AI use-case identification and prioritization</text>
<text x="82" y="262" font-size="15" fill="#37434b">✓ Fuel-efficiency business / value case</text>
<text x="82" y="296" font-size="15" fill="#37434b">✓ Data, technology and analytics requirements</text>
<text x="82" y="330" font-size="15" fill="#37434b">✓ Scalable technology / implementation roadmap</text>

<rect x="544" y="158" width="465" height="210" fill="#faf9f7" stroke="#cfd3d6"/>
<text x="568" y="191" font-size="12" font-weight="700" letter-spacing="1.1" fill="#5d7483">IMPLEMENTATION FOCUS</text>
<text x="568" y="228" font-size="15" fill="#37434b">• Data integration and feature readiness</text>
<text x="568" y="262" font-size="15" fill="#37434b">• AI-enabled decision-support build</text>
<text x="568" y="296" font-size="15" fill="#37434b">• Governance and operating-process integration</text>
<text x="568" y="330" font-size="15" fill="#37434b">• Adoption, ownership and benefits realization</text>

<rect x="1030" y="158" width="512" height="210" fill="#faf9f7" stroke="#cfd3d6"/>
<text x="1054" y="191" font-size="12" font-weight="700" letter-spacing="1.1" fill="#805f45">MANAGEMENT DECISIONS</text>
<text x="1054" y="228" font-size="15" fill="#37434b">1  Where in the operating workflow should AI intervene?</text>
<text x="1054" y="262" font-size="15" fill="#37434b">2  What data / integration approach is viable at scale?</text>
<text x="1054" y="296" font-size="15" fill="#37434b">3  How will benefits be measured and attributed?</text>
<text x="1054" y="330" font-size="15" fill="#37434b">4  Who owns the capability after implementation?</text>

<text x="58" y="420" font-size="14" font-weight="700" fill="#4e555b">CROSS-FUNCTIONAL DELIVERY TRACKER</text>
<rect x="58" y="444" width="1484" height="348" fill="#ffffff" stroke="#cfd3d6"/>
<rect x="58" y="444" width="1484" height="46" fill="#f3f2ef"/>
<text x="82" y="474" font-size="12" font-weight="700" fill="#6a7075">WORKSTREAM</text>
<text x="350" y="474" font-size="12" font-weight="700" fill="#6a7075">ENGAGEMENT OUTPUT</text>
<text x="900" y="474" font-size="12" font-weight="700" fill="#6a7075">IMPLEMENTATION QUESTION</text>

<g font-size="14" fill="#37434b">
<text x="82" y="532" font-weight="700">Use cases &amp; value</text><text x="350" y="532">Prioritized AI opportunities + fuel-efficiency value case</text><text x="900" y="532">Which opportunities move into build first?</text>
<line x1="82" y1="555" x2="1515" y2="555" stroke="#e2e4e6"/>
<text x="82" y="600" font-weight="700">Data &amp; analytics</text><text x="350" y="600">Data / feature / analytics requirements</text><text x="900" y="600">Can required signals be available at decision time?</text>
<line x1="82" y1="623" x2="1515" y2="623" stroke="#e2e4e6"/>
<text x="82" y="668" font-weight="700">Technology</text><text x="350" y="668">Scalable technology and integration roadmap</text><text x="900" y="668">How will the capability fit the existing stack?</text>
<line x1="82" y1="691" x2="1515" y2="691" stroke="#e2e4e6"/>
<text x="82" y="736" font-weight="700">Operating model</text><text x="350" y="736">Decision support, governance and operating processes</text><text x="900" y="736">Who acts, approves, overrides and monitors?</text>
<line x1="82" y1="759" x2="1515" y2="759" stroke="#e2e4e6"/>
<text x="82" y="782" font-weight="700">Adoption</text><text x="350" y="782">Implementation support and adoption mechanisms</text><text x="900" y="782">How does the new capability become normal operations?</text>
</g>
</g>

<line x1="55" y1="850" x2="1545" y2="850" stroke="#c9ced2" stroke-width="1"/>
<text x="58" y="878" font-family="Arial" font-size="11" fill="#6b737a">AI Fuel Efficiency Program</text>
<text x="800" y="878" text-anchor="middle" font-family="Arial" font-size="11" font-weight="700" letter-spacing="1.6" fill="#4e555b">CONFIDENTIAL</text>
<text x="1542" y="878" text-anchor="end" font-family="Arial" font-size="11" fill="#6b737a">3</text>
</svg>