<svg xmlns="http://www.w3.org/2000/svg" width="1600" height="900" viewBox="0 0 1600 900">
<rect width="1600" height="900" fill="#ffffff"/>
<text x="58" y="34" font-family="Arial" font-size="11" font-weight="700" letter-spacing="1.5" fill="#7b6a4b">AI FUEL EFFICIENCY PROGRAM | IMPLEMENTATION ROADMAP</text>
<text x="58" y="68" font-family="Arial" font-size="24" font-weight="700" fill="#1d252b">Implementation sequenced business, data, AI, technology, governance and adoption workstreams around shared readiness gates</text>
<line x1="58" y1="91" x2="1542" y2="91" stroke="#b2915f" stroke-width="2"/>

<g font-family="Arial">
<text x="58" y="136" font-size="12" font-weight="700" fill="#6a7075">WORKSTREAM</text>
<text x="410" y="136" font-size="12" font-weight="700" fill="#6a7075">1  PRIORITIZE</text>
<text x="705" y="136" font-size="12" font-weight="700" fill="#6a7075">2  DEFINE</text>
<text x="1000" y="136" font-size="12" font-weight="700" fill="#6a7075">3  BUILD / VALIDATE</text>
<text x="1320" y="136" font-size="12" font-weight="700" fill="#6a7075">4  EMBED / SCALE</text>

<line x1="360" y1="152" x2="360" y2="734" stroke="#d8dbde"/>
<line x1="655" y1="152" x2="655" y2="734" stroke="#d8dbde"/>
<line x1="950" y1="152" x2="950" y2="734" stroke="#d8dbde"/>
<line x1="1270" y1="152" x2="1270" y2="734" stroke="#d8dbde"/>
<line x1="1542" y1="152" x2="1542" y2="734" stroke="#d8dbde"/>

<text x="58" y="205" font-size="14" font-weight="700" fill="#37434b">Use case &amp; value</text>
<rect x="380" y="180" width="250" height="38" fill="#efe7da"/><text x="399" y="205" font-size="13" fill="#3f464b">Prioritize opportunities</text>
<rect x="675" y="180" width="250" height="38" fill="#efe7da"/><text x="694" y="205" font-size="13" fill="#3f464b">Build value case</text>
<rect x="970" y="180" width="280" height="38" fill="#efe7da"/><text x="989" y="205" font-size="13" fill="#3f464b">Validate pilot economics</text>
<rect x="1290" y="180" width="230" height="38" fill="#efe7da"/><text x="1309" y="205" font-size="13" fill="#3f464b">Track realized value</text>

<text x="58" y="285" font-size="14" font-weight="700" fill="#37434b">Data &amp; features</text>
<rect x="380" y="260" width="250" height="38" fill="#e5ebee"/><text x="399" y="285" font-size="13" fill="#3f464b">Map data requirements</text>
<rect x="675" y="260" width="250" height="38" fill="#e5ebee"/><text x="694" y="285" font-size="13" fill="#3f464b">Define feature contract</text>
<rect x="970" y="260" width="280" height="38" fill="#e5ebee"/><text x="989" y="285" font-size="13" fill="#3f464b">Integrate + validate data</text>
<rect x="1290" y="260" width="230" height="38" fill="#e5ebee"/><text x="1309" y="285" font-size="13" fill="#3f464b">Monitor quality / drift</text>

<text x="58" y="365" font-size="14" font-weight="700" fill="#37434b">AI / analytics</text>
<rect x="675" y="340" width="250" height="38" fill="#e5ece2"/><text x="694" y="365" font-size="13" fill="#3f464b">Define model / decisions</text>
<rect x="970" y="340" width="280" height="38" fill="#e5ece2"/><text x="989" y="365" font-size="13" fill="#3f464b">Build, test, explain</text>
<rect x="1290" y="340" width="230" height="38" fill="#e5ece2"/><text x="1309" y="365" font-size="13" fill="#3f464b">Monitor + improve</text>

<text x="58" y="445" font-size="14" font-weight="700" fill="#37434b">Technology</text>
<rect x="675" y="420" width="250" height="38" fill="#eee7e2"/><text x="694" y="445" font-size="13" fill="#3f464b">Define architecture</text>
<rect x="970" y="420" width="280" height="38" fill="#eee7e2"/><text x="989" y="445" font-size="13" fill="#3f464b">Integrate decision support</text>
<rect x="1290" y="420" width="230" height="38" fill="#eee7e2"/><text x="1309" y="445" font-size="13" fill="#3f464b">Scale / operate platform</text>

<text x="58" y="525" font-size="14" font-weight="700" fill="#37434b">Operating model</text>
<rect x="675" y="500" width="250" height="38" fill="#f1ece4"/><text x="694" y="525" font-size="13" fill="#3f464b">Design workflow / roles</text>
<rect x="970" y="500" width="280" height="38" fill="#f1ece4"/><text x="989" y="525" font-size="13" fill="#3f464b">Pilot operating process</text>
<rect x="1290" y="500" width="230" height="38" fill="#f1ece4"/><text x="1309" y="525" font-size="13" fill="#3f464b">Transfer BAU ownership</text>

<text x="58" y="605" font-size="14" font-weight="700" fill="#37434b">Governance</text>
<rect x="675" y="580" width="250" height="38" fill="#e8e8e7"/><text x="694" y="605" font-size="13" fill="#3f464b">Define controls / decisions</text>
<rect x="970" y="580" width="280" height="38" fill="#e8e8e7"/><text x="989" y="605" font-size="13" fill="#3f464b">Run pilot governance</text>
<rect x="1290" y="580" width="230" height="38" fill="#e8e8e7"/><text x="1309" y="605" font-size="13" fill="#3f464b">Monitor performance / risk</text>

<text x="58" y="685" font-size="14" font-weight="700" fill="#37434b">Change &amp; adoption</text>
<rect x="675" y="660" width="250" height="38" fill="#eee8dc"/><text x="694" y="685" font-size="13" fill="#3f464b">Stakeholders / adoption plan</text>
<rect x="970" y="660" width="280" height="38" fill="#eee8dc"/><text x="989" y="685" font-size="13" fill="#3f464b">Train, test, capture feedback</text>
<rect x="1290" y="660" width="230" height="38" fill="#eee8dc"/><text x="1309" y="685" font-size="13" fill="#3f464b">Embed in normal operations</text>

<line x1="655" y1="154" x2="655" y2="734" stroke="#b2915f" stroke-width="2" stroke-dasharray="6 6"/>
<line x1="950" y1="154" x2="950" y2="734" stroke="#b2915f" stroke-width="2" stroke-dasharray="6 6"/>
<line x1="1270" y1="154" x2="1270" y2="734" stroke="#b2915f" stroke-width="2" stroke-dasharray="6 6"/>

<text x="58" y="784" font-size="14" font-weight="700" fill="#4e555b">READINESS GATES</text>
<text x="380" y="812" font-size="13" fill="#37434b">Use case + value case agreed</text>
<text x="675" y="812" font-size="13" fill="#37434b">Data / technology / operating design ready</text>
<text x="1000" y="812" font-size="13" fill="#37434b">Pilot evidence supports scale</text>
</g>

<line x1="55" y1="850" x2="1545" y2="850" stroke="#c9ced2" stroke-width="1"/>
<text x="58" y="878" font-family="Arial" font-size="11" fill="#6b737a">AI Fuel Efficiency Program</text>
<text x="800" y="878" text-anchor="middle" font-family="Arial" font-size="11" font-weight="700" letter-spacing="1.6" fill="#4e555b">CONFIDENTIAL</text>
<text x="1542" y="878" text-anchor="end" font-family="Arial" font-size="11" fill="#6b737a">7</text>
</svg>